<?xml version="1.0" encoding="utf-8" ?><svg xmlns="http://www.w3.org/2000/svg" xmlns:xlink="http://www.w3.org/1999/xlink" width="801" height="734" viewBox="0 0 801 734"><path fill="#A8CAD7" d="M232.171 43.0896C244.184 42.0864 236.052 59.5123 234.495 65.2065C224.699 101.023 243.851 134.571 276.673 149.641C289.136 143.649 300.154 139.409 313.823 136.38C355.998 127.036 405.349 125.653 445.598 143.395C452.307 146.353 461.429 152.596 467.895 156.61C481.17 151.834 492.061 148.466 504.041 139.804C527.46 123.131 539.668 94.8255 535.721 66.3535C535.052 61.6499 529.44 47.7697 533.828 44.2306C535.3 43.0427 540.33 43.6484 542.292 44.3886C558.191 50.3872 570.467 64.1809 578.587 78.7436C591.62 102.79 593.503 131.382 586.065 157.334C577.353 187.727 554.083 208.194 527.26 222.871C536.35 222.899 546.058 225.508 555.054 223.695C566.231 221.442 589.579 199.036 600.542 191.352C609.66 184.961 619.836 179.653 630.51 176.428C661.212 167.151 693.785 169.774 724.478 177.767C737.26 181.096 749.744 185.367 762.456 188.89C769.847 190.939 780.658 190.48 787.103 194.134C788.73 195.056 790.199 196.359 790.675 198.233C792.965 207.25 771.512 252.623 766.418 262.646C763.614 268.182 760.551 273.583 757.239 278.832C736.351 312.308 704.619 342.417 665.219 350.943C623.604 359.949 593.129 346.984 558.866 325.486C561.491 329.923 566.32 340.471 568.73 345.384C593.047 394.954 609.503 452.085 606.814 507.677C604.763 550.073 588.574 592.874 561.945 626.01C552.299 638.012 540.917 648.338 529.568 658.618C520.3 665.709 512.031 672.749 502.325 679.602C478.834 696.189 453.886 709.505 426.731 719.005C417.275 722.313 408.037 724.606 398.449 727.183C389.609 695.823 384.863 675.87 358.982 652.757C353.453 647.82 348.282 644.294 342.845 639.785C339.034 642.871 332.163 647.044 328.027 649.78C316.41 657.466 304.32 663.84 290.604 666.854C285.637 667.945 281.355 668.328 276.418 669.198C272.744 674.858 269.146 680.675 264.814 685.81C244.169 710.276 206.478 718.476 180.994 696.345C165.371 682.777 157.145 663.601 155.654 643.157C153.982 620.219 161.117 591.744 176.275 574.217C167.984 573.775 156.219 572.309 148.189 570.425C99.7277 559.054 86.0413 490.985 100.349 450.154C104.555 438.421 111.153 427.689 119.723 418.638C130.716 406.985 137.192 405.361 149.076 396.95C164.357 386.136 177.266 370.183 185.817 353.758C201.696 323.256 187.606 299.838 194.229 271.598C183.425 284.389 184.113 298.103 176.989 311.159C174.519 315.685 152.562 318.516 145.901 319.07C119.285 321.281 91.9216 309.729 72.0724 292.265C49.3119 271.551 26.4582 244.489 21.8163 213.107C21.1064 209.259 23.6069 205.389 27.6659 204.972C51.678 202.504 74.3778 195.618 97.8921 190.709C105.763 189.066 113.766 188.353 121.796 187.935C157.782 186.064 182.323 203.992 207.565 227.11C209.998 221.261 215.265 213.39 218.879 208.223C215.151 205.237 211.728 201.43 208.302 198.158C173.59 165.011 165.78 111.047 194.057 71.2302C202.16 59.8199 217.601 45.4827 232.171 43.0896ZM256.891 414.566C261.357 413.476 263.135 410.949 265.134 406.95C263.886 406.422 263.119 406.275 262.429 405.133C262.452 403.762 267.403 397.706 268.496 396.396C291.189 369.19 301.923 337.637 315.249 305.476C330 269.875 349.829 232.621 377.14 205.009C389.851 192.328 414.087 174.897 431.211 169.465C393.066 152.48 341.3 150.112 301.983 164.352C247.868 183.952 233.106 246.362 226.566 297.007C224.822 310.057 223.194 328.739 218.76 340.736C210.815 362.234 190.476 393.324 171.632 406.526C179.661 406.334 188.408 409.076 196.457 410.005C213.324 411.952 230.283 411.684 247.145 413.584C250.225 413.931 253.835 414.513 256.891 414.566ZM406.886 672.5C410.027 680.55 412.753 688.302 414.01 696.904C460.912 675.797 494.934 652.306 529.002 614.092C573.093 564.636 584.563 503.548 572.44 439.292C571.819 435.999 569.161 422.88 567.247 420.679C562.149 465.13 559.865 489.888 533.437 527.314C501.142 573.05 461.754 585.754 411.241 603.852C398.282 608.495 383.806 617.105 371.571 624.138C386.005 636.751 399.566 654.752 406.886 672.5ZM695.179 212.892C649.372 216.348 625.511 243.237 593.148 271.6C586.385 277.528 576.066 283.45 568.197 287.79C575.74 287.789 584.371 288.171 591.704 286.973C611.81 283.085 623.131 267.073 638.569 253.846C646.977 246.528 656.022 239.975 665.594 234.264C684.122 223.001 698.637 219.669 718.677 213.379C712.79 212.966 701.13 212.094 695.179 212.892ZM286.451 582.363C277.29 583.238 267.871 583.597 258.657 583.422C250.007 583.125 245.798 585.252 240.321 591.745C229.577 604.383 225.334 618.749 220.231 634.002C218.401 639.47 211.533 638.83 212.027 629.887C212.958 613.054 219.144 596.365 229.323 582.856C221.357 581.767 211.14 579.358 203.378 579.606C194.079 583.473 185.864 596.931 182.301 605.948C175.476 623.224 173.034 643.408 180.294 660.97C189.062 682.181 208.191 692.657 229.946 683.211C233.225 681.787 236.407 679.77 238.998 677.231C252.245 662.811 260.495 640.39 267.944 622.686C270.937 615.78 274.115 608.955 277.475 602.22C280.969 595.239 284.183 589.931 286.451 582.363ZM381.148 534.346C363.19 535.379 345.017 547.68 333.145 560.702C327.862 566.497 322.452 574.258 317.933 580.634C304.564 599.503 293.496 619.106 286.524 641.257C289.326 640.268 292.921 639.131 295.466 637.734C334.685 617.532 349.917 570.969 382.425 543.357C385.722 540.557 389.637 538.836 393.68 537.463C388.568 535.016 386.903 534.454 381.148 534.346Z"/><path fill="#FCFBFD" d="M265.134 406.95L265.38 406.533C290.3 416.107 310.134 431.654 320.846 456.691C336.594 493.499 327.905 536.405 288.75 553.557C257.314 567.329 222.742 554.934 190.609 551.612C175.175 549.909 157.1 551.128 142.202 545.895C132.543 542.503 126.82 531.12 122.985 522.062C114.225 501.375 112.926 473.204 121.225 452.165C124.918 442.805 131.617 434.537 141.088 430.591C157.587 423.718 172.452 433.408 188.188 434.611C214.913 436.655 239.923 431.815 265.594 442.711C275.299 446.747 283.389 453.889 288.595 463.018C290.636 466.561 293.793 474.623 299.055 472.263C305.317 469.454 302.966 458.998 301.622 453.839C296.945 435.889 282.837 422.446 265.146 417.396C264.011 417.072 256.924 415.224 256.609 414.889L256.891 414.566C261.357 413.476 263.135 410.949 265.134 406.95Z"/><path fill="#A8CAD7" d="M250.05 465.791C256.347 465.254 263.824 467.276 263.741 474.596C263.54 492.352 251.574 506.342 234.347 507.925C220.534 507.197 217.046 491.813 223.65 481.75C229.679 472.563 239.717 468.207 250.05 465.791Z"/><path fill="#A8CAD7" d="M140.084 461.667C154.104 464.437 165.586 492.248 152.562 500.335C137.252 498.067 127.156 473.381 140.084 461.667Z"/><path fill="#FCFBFD" d="M402.463 330.588C407.902 329.952 414.645 330.802 419.742 332.729C435.908 338.84 441.953 348.789 448.921 363.33C430.421 351.026 414.233 346.101 392.17 352.612C378.088 356.7 366.672 366.814 356.02 376.345C360.835 349.777 375.262 333.854 402.463 330.588Z"/><path fill="#A8CAD7" d="M20.0026 443.546C33.0949 442.548 44.0192 447.707 54.9105 454.343C74.6396 466.363 58.413 472.209 46.0512 476.371C36.5496 479.513 22.4625 483.039 13.639 477.373C-1.78016 467.472 2.03977 447.699 20.0026 443.546Z"/><path fill="#A8CAD7" d="M45.2953 372.743C46.2244 372.671 47.1554 372.624 48.0871 372.603C53.5449 372.521 60.2782 376.445 64.1481 380.575C70.4288 387.679 78.9879 398.554 79.9826 408.156C80.5877 413.996 70.4014 412.823 66.7831 412.592C58.7014 412.227 50.0689 409.861 42.8639 406.2C27.9339 398.615 26.9467 377.08 45.2953 372.743Z"/><path fill="#A8CAD7" d="M43.6657 520.072C50.1917 518.855 56.0667 517.24 62.3505 520.201C63.9641 520.711 65.2228 521.754 65.4459 523.497C66.2353 529.664 61.0084 537.553 57.6708 542.323C52.5482 549.371 45.4086 556.997 36.3596 558.41C26.9711 559.876 19.1245 554.86 17.6252 545.309C15.4294 531.322 32.0382 521.814 43.6657 520.072Z"/><path fill="#93BED4" d="M43.6657 520.072C50.1917 518.855 56.0667 517.24 62.3505 520.201C56.2319 519.951 49.5972 520.443 43.6657 520.072Z"/></svg>