<?xml version="1.0" encoding="utf-8" ?><svg xmlns="http://www.w3.org/2000/svg" xmlns:xlink="http://www.w3.org/1999/xlink" width="809" height="357" viewBox="0 0 809 357"><path fill="#A8CAD7" d="M216.534 17.5404C220.596 17.2757 225.113 17.4481 229.161 17.3852C256.441 16.9613 257.492 19.0668 255.718 44.1475C255.175 51.5405 254.671 58.9363 254.204 66.3345C251.29 109.368 249.418 152.466 248.59 195.591C248.433 205.082 248.617 214.575 249.142 224.053C249.319 227.508 250.321 240.979 249.93 243.503C249.049 249.183 234.477 251.675 229.356 252.734C222.738 253.994 215.741 255.179 209.039 254.475C201.723 253.938 200.536 244.684 200.408 238.769C199.835 212.259 201.732 185.653 203.103 159.196L204.323 133.105C204.638 125.236 204.802 116.995 206.065 109.207C197.263 128.413 188.038 146.548 179.446 166.161C175.13 176.007 170.877 185.881 166.686 195.781C163.254 204.023 159.582 214.16 154.827 221.611C151.523 226.441 146.664 229.568 140.949 230.447C110.285 235.168 108.494 217.198 103.365 192.778C100.183 178.028 97.3731 163.2 94.9388 148.308C92.849 136.28 89.9373 123.656 88.0123 111.981C84.1661 130.244 80.9025 148.964 77.386 167.346L68.5625 215.165C65.6128 231.49 63.3596 249.591 57.3919 264.99C55.302 270.383 42.5682 267.908 38.2661 266.833C31.6473 265.179 25.141 264.284 18.9699 260.984C11.4092 256.942 12.8785 249.645 13.9577 242.549C16.2178 231.206 18.9955 219.812 21.477 208.501L33.2505 152.543L50.7715 69.1378C52.6916 59.5658 53.848 49.9263 55.799 40.3076C57.7316 30.7799 60.9406 26.7565 70.7165 24.6837C82.0921 22.2716 100.49 16.5733 111.157 23.1631C114.128 25.006 116.397 27.7892 117.604 31.0701C120.317 38.4441 123.441 59.2796 124.967 68.0985L134.544 123.873C136.721 136.906 138.804 151.441 141.815 164.188C149.974 149.483 159.284 126.379 165.696 110.677L186.995 59.6081C191.844 47.9965 197.253 31.9358 204.483 21.771C206.968 18.2779 212.517 17.8692 216.534 17.5404Z"/><path fill="#A8CAD7" d="M481.297 2.59207C486.205 2.25975 497.151 0.760562 496.827 8.51565C496.345 20.051 493.708 31.9094 491.704 43.3167C488.219 62.7753 485.045 82.2882 482.183 101.848C480.4 114.268 478.36 127.026 478.263 139.544C485.693 134.757 493.937 124.243 499.67 117.365C505.975 109.784 512.238 102.168 518.46 94.5178C522.068 90.1056 525.807 84.6721 530.39 81.2446C532.825 79.4237 535.721 78.6677 538.676 78.1782C545.002 77.1301 570.925 74.8031 575.513 78.2319C576.704 79.1225 577.409 80.4394 577.58 81.9073C577.902 84.6746 576.072 87.5202 574.601 89.7404C569.874 96.874 563.685 103.174 557.883 109.437L537.013 132.142C532.723 136.781 527.182 142.429 523.29 147.277C526.694 154.37 531.157 162.037 535.026 168.914L552.119 199.096C555.939 205.76 560.239 212.474 563.345 219.515C564.992 223.248 565.744 226.04 562.973 229.437C562.348 229.76 561.708 230.053 561.055 230.315C554.52 233.002 546.346 231.984 539.421 232.642C531.614 233.384 520.233 235.844 512.971 232.24C505.088 228.327 480.301 171.203 474.779 169.108C474.477 168.994 474.247 169.215 473.97 169.347C469.621 175.865 469.089 216.671 466.431 226.165C464.876 231.721 464.555 235.336 456.939 235.954C445.84 236.855 433.585 236.628 422.575 235.843C416.102 235.382 415.916 225.063 416.661 220.61C418.085 201.477 420.901 182.499 423.297 163.471L434.665 75.2784C436.471 62.3682 438.186 49.4454 439.81 36.511C440.441 31.3628 442.747 7.55205 445.344 5.53675C450.404 1.61049 474.056 2.89964 481.297 2.59207Z"/><path fill="#A8CAD7" d="M505.537 264.021C527.448 263.149 550.021 264.068 571.96 264.37C607.071 264.853 642.652 265.917 677.293 271.952C683.437 273.322 690.103 275.765 689.771 283.297C689.503 289.386 685.085 294.98 678.865 295.731C670.531 296.737 661.878 295.695 653.482 295.068C645.38 294.473 637.27 293.997 629.154 293.638C599.378 292.345 569.569 292.005 539.772 292.618C465.987 294.622 392.518 303.042 320.194 317.785C290.762 325.144 261.309 330.821 232.57 340.939C213.294 347.699 189.713 359.494 172.101 342.053C146.183 316.386 210.487 300.699 224.728 296.868C292.524 278.631 362.718 270.904 432.631 266.763C457.016 265.318 481.241 265.15 505.537 264.021Z"/><path fill="#A8CAD7" d="M740.582 62.9474C754.053 61.6185 768.087 64.2898 778.562 73.2878C799.516 91.2872 798.527 127.449 781.179 147.499C766.138 164.882 743.205 170.181 721.208 171.238C714.657 171.553 708.146 171.33 701.584 171.8C702.988 180.239 705.638 189.009 714.025 193.04C728.871 200.175 747.765 194.958 761.635 187.794C765.839 185.622 769.875 180.553 774.656 179.097C779.71 177.22 782.832 184.511 783.841 188.56C785.366 194.679 784.203 199.888 781.003 205.341C771.101 221.394 746.322 230.408 728.139 232.519C686.812 237.319 657.425 217.732 653.507 175.018C650.326 140.333 662.115 108.829 687.613 85.1531C704.448 69.2939 718.121 65.0229 740.582 62.9474ZM705.381 139.411C710.337 139.364 715.293 139.23 720.244 139.008C730.478 137.726 737.045 136.01 743.97 127.907C752.043 118.461 752.12 96.4845 735.332 98.0373C716.011 101.235 706.373 121.588 705.381 139.411Z"/><path fill="#A8CAD7" d="M396.435 4.13325C403.024 3.49924 412.095 3.46149 411.367 12.4064C410.483 23.2697 409.136 34.045 407.886 44.8747C404.898 71.1885 401.533 97.4584 397.794 123.676C394.492 147.211 390.584 170.605 390.735 194.451C390.82 207.839 402.181 204.572 402.393 215.845C402.478 220.32 399.945 232.346 396.636 235.363C389.286 242.062 375.501 241.352 366.147 241.235C349.361 240.747 339.054 230.738 338.593 213.852C338.172 198.439 339.959 183.556 341.424 168.231C343.624 144.771 346.076 121.337 348.782 97.9304L354.472 47.1997C355.643 36.699 356.461 25.9834 358.402 15.5932C358.845 13.2189 359.57 8.87261 361.382 7.15042C364.766 3.9363 390.423 4.36267 396.435 4.13325Z"/><path fill="#A8CAD7" d="M630.688 74.8105C634.529 74.5959 647.981 74.5566 647.489 79.8746C644.268 114.69 634.144 149.173 630.28 184.049C628.478 196.958 627.778 209.801 627.426 222.79C627.152 232.909 604.404 230.748 596.755 231.032C592.495 231.044 586.45 231.187 582.818 228.719C580.936 227.433 579.65 225.446 579.246 223.204C578.151 217.172 578.719 210.339 579.28 204.259C580.598 189.973 595.55 85.1189 600.625 78.6941C604.367 73.9557 624.282 75.3935 630.688 74.8105Z"/><path fill="#A8CAD7" d="M284.001 93.3012C292.259 93.0921 315.841 92.2224 322.06 95.4362C323.166 96.0082 323.927 96.8941 324.275 98.0971C325.75 103.185 318.657 157.681 317.659 168.182C316.202 182.399 315.223 196.66 314.724 210.943C314.583 215.953 314.604 220.966 314.786 225.975C315.161 234.33 317.737 240.101 308.26 243.075C301.1 244.499 280.12 246.35 273.577 243.772C271.944 243.128 270.862 242.27 270.191 240.634C264.575 226.933 274.123 146.003 275.839 127.802C276.386 122.009 277.62 100.517 279.111 97.0802C280.077 94.8543 281.858 94.1218 284.001 93.3012Z"/><path fill="#A8CAD7" d="M627.197 4.45445C641.196 2.36134 653.157 8.80522 656.776 22.8934C658.79 30.5222 657.626 38.6413 653.55 45.3975C649.182 52.7336 642.665 56.9535 634.5 59.0262C621.805 62.6513 609.728 53.6415 606.053 41.622C603.681 33.9766 604.453 25.7016 608.199 18.6269C612.469 10.6929 618.862 6.97751 627.197 4.45445Z"/><path fill="#A8CAD7" d="M301.668 25.8984C316.258 23.8062 329.789 33.9181 331.911 48.5005C334.034 63.0829 323.946 76.6304 309.364 78.7817C294.74 80.9393 281.142 70.8195 279.013 56.1952C276.885 41.5708 287.035 27.9965 301.668 25.8984Z"/></svg>